<?xml version="1.0" encoding="UTF-8" standalone="no"?>
<!-- Created with Inkscape (http://www.inkscape.org/) -->

<svg
   width="295.68231mm"
   height="116.42904mm"
   viewBox="0 0 295.68231 116.42904"
   version="1.1"
   id="svg1"
   xmlns:inkscape="http://www.inkscape.org/namespaces/inkscape"
   xmlns:sodipodi="http://sodipodi.sourceforge.net/DTD/sodipodi-0.dtd"
   xmlns="http://www.w3.org/2000/svg"
   xmlns:svg="http://www.w3.org/2000/svg">
  <sodipodi:namedview
     id="namedview1"
     pagecolor="#ffffff"
     bordercolor="#000000"
     borderopacity="0.25"
     inkscape:showpageshadow="2"
     inkscape:pageopacity="0.0"
     inkscape:pagecheckerboard="0"
     inkscape:deskcolor="#d1d1d1"
     inkscape:document-units="mm" />
  <defs
     id="defs1" />
  <g
     inkscape:label="圖層 1"
     inkscape:groupmode="layer"
     id="layer1"
     transform="translate(-0.68213503,-36.981202)">
    <g
       id="g1206"
       transform="matrix(0.86914766,0,0,0.86914766,-44.124148,-467.83043)"
       style="fill:#000000;fill-opacity:1"
       inkscape:export-filename="AcroViz_Black.png"
       inkscape:export-xdpi="96"
       inkscape:export-ydpi="96">
      <g
         id="g1186"
         style="fill:#000000;fill-opacity:1">
        <path
           class="cls-15"
           d="m 210.76,640.22 -1.75,-5.17 h -10.73 l -1.75,5.17 h -4.95 l 9.47,-26.98 h 5.37 l 9.47,26.98 h -5.14 z m -7.11,-20.97 -3.84,11.38 h 7.69 l -3.84,-11.38 z"
           id="path1170"
           style="fill:#000000;fill-opacity:1;stroke-width:0px" />
        <path
           class="cls-15"
           d="m 232.83,637.52 c -1.37,1.71 -3.77,3.12 -6.77,3.12 -3,0 -5.52,-1.45 -6.89,-3.12 -1.48,-1.87 -2.17,-4.34 -2.17,-7.23 0,-2.89 0.69,-5.37 2.17,-7.23 1.37,-1.67 3.88,-3.12 6.89,-3.12 3.01,0 5.4,1.41 6.77,3.12 0.91,1.18 1.45,2.74 1.52,4.3 h -4.68 c -0.04,-0.72 -0.27,-1.33 -0.57,-1.83 -0.57,-0.87 -1.6,-1.48 -3.04,-1.48 -1.29,0 -2.25,0.53 -2.89,1.22 -1.14,1.26 -1.33,3.16 -1.33,5.02 0,1.86 0.19,3.73 1.33,4.98 0.65,0.69 1.6,1.26 2.89,1.26 1.45,0 2.47,-0.61 3.04,-1.48 0.3,-0.49 0.53,-1.1 0.57,-1.83 h 4.68 c -0.08,1.56 -0.61,3.12 -1.52,4.3 z"
           id="path1171"
           style="fill:#000000;fill-opacity:1;stroke-width:0px" />
        <path
           class="cls-15"
           d="m 248.17,624.66 c -3.35,0 -5.1,2.4 -5.1,5.59 v 9.97 h -4.79 v -19.79 h 4.03 l 0.42,2.97 c 0.91,-2.28 3.27,-3.23 5.59,-3.23 0.49,0 0.99,0.04 1.48,0.11 v 4.57 c -0.53,-0.12 -1.1,-0.19 -1.64,-0.19 z"
           id="path1172"
           style="fill:#000000;fill-opacity:1;stroke-width:0px" />
        <path
           class="cls-15"
           d="m 267.12,637.63 c -1.37,1.67 -3.92,3.08 -6.93,3.08 -3.01,0 -5.56,-1.41 -6.92,-3.08 -1.48,-1.87 -2.32,-3.96 -2.32,-7.31 0,-3.35 0.84,-5.44 2.32,-7.31 1.37,-1.68 3.92,-3.08 6.92,-3.08 3,0 5.56,1.41 6.93,3.08 1.48,1.86 2.32,3.96 2.32,7.31 0,3.35 -0.84,5.44 -2.32,7.31 z m -3.92,-12.29 c -0.65,-0.68 -1.71,-1.26 -3.01,-1.26 -1.3,0 -2.36,0.57 -3.01,1.26 -1.14,1.25 -1.41,3.12 -1.41,4.98 0,1.86 0.27,3.73 1.41,4.98 0.65,0.69 1.71,1.25 3.01,1.25 1.3,0 2.36,-0.57 3.01,-1.25 1.14,-1.25 1.41,-3.12 1.41,-4.98 0,-1.86 -0.27,-3.73 -1.41,-4.98 z"
           id="path1173"
           style="fill:#000000;fill-opacity:1;stroke-width:0px" />
        <path
           class="cls-15"
           d="m 283.56,640.22 h -5.4 l -8.94,-26.98 h 5.21 l 6.54,20.59 6.51,-20.59 h 4.95 z"
           id="path1174"
           style="fill:#000000;fill-opacity:1;stroke-width:0px" />
        <path
           class="cls-15"
           d="m 295.02,617.69 v -4.91 h 5.1 v 4.91 z m 0.15,22.53 V 620.43 H 300 v 19.79 z"
           id="path1175"
           style="fill:#000000;fill-opacity:1;stroke-width:0px" />
        <path
           class="cls-15"
           d="m 304.38,640.22 v -4.19 l 10.46,-11.68 h -10.39 v -3.92 h 15.98 v 4.3 l -10.35,11.57 h 10.43 v 3.92 z"
           id="path1176"
           style="fill:#000000;fill-opacity:1;stroke-width:0px" />
        <path
           class="cls-15"
           d="m 204.71,653.52 v 22.41 h -4.91 v -22.41 h -7.99 v -4.57 h 20.89 v 4.57 z"
           id="path1177"
           style="fill:#000000;fill-opacity:1;stroke-width:0px" />
        <path
           class="cls-15"
           d="m 228.88,667.52 h -13.24 c -0.04,1.52 0.5,2.97 1.45,3.88 0.69,0.65 1.64,1.22 2.93,1.22 1.37,0 2.21,-0.27 2.89,-0.95 0.42,-0.42 0.76,-0.95 0.95,-1.67 h 4.57 c -0.12,1.18 -0.91,2.74 -1.68,3.65 -1.67,1.98 -4.15,2.78 -6.66,2.78 -2.7,0 -4.68,-0.95 -6.24,-2.43 -1.98,-1.9 -3.04,-4.68 -3.04,-7.92 0,-3.24 0.95,-5.98 2.85,-7.92 1.48,-1.52 3.61,-2.51 6.32,-2.51 2.93,0 5.59,1.18 7.23,3.65 1.45,2.17 1.79,4.41 1.71,6.89 0,0 -0.04,0.91 -0.04,1.33 z m -5.94,-6.93 c -0.65,-0.68 -1.64,-1.14 -3.01,-1.14 -1.44,0 -2.62,0.61 -3.31,1.52 -0.68,0.88 -0.99,1.79 -1.03,3.08 h 8.56 c -0.04,-1.48 -0.46,-2.62 -1.22,-3.46 z"
           id="path1178"
           style="fill:#000000;fill-opacity:1;stroke-width:0px" />
        <path
           class="cls-15"
           d="m 247.52,673.23 c -1.37,1.71 -3.77,3.12 -6.77,3.12 -3,0 -5.52,-1.45 -6.89,-3.12 -1.49,-1.87 -2.17,-4.34 -2.17,-7.23 0,-2.89 0.68,-5.37 2.17,-7.23 1.37,-1.67 3.88,-3.12 6.89,-3.12 3.01,0 5.4,1.41 6.77,3.12 0.91,1.18 1.45,2.74 1.52,4.3 h -4.68 c -0.04,-0.72 -0.27,-1.33 -0.57,-1.83 -0.57,-0.88 -1.6,-1.48 -3.05,-1.48 -1.29,0 -2.25,0.53 -2.89,1.22 -1.14,1.25 -1.33,3.16 -1.33,5.02 0,1.86 0.19,3.73 1.33,4.98 0.65,0.69 1.6,1.26 2.89,1.26 1.45,0 2.47,-0.61 3.05,-1.49 0.3,-0.49 0.53,-1.1 0.57,-1.83 h 4.68 c -0.08,1.56 -0.61,3.12 -1.52,4.3 z"
           id="path1179"
           style="fill:#000000;fill-opacity:1;stroke-width:0px" />
        <path
           class="cls-15"
           d="m 264.88,675.93 v -12.22 c 0,-2.28 -0.76,-3.69 -3.27,-3.69 -2.85,0 -4.07,3.04 -4.07,5.48 v 10.43 h -4.75 v -27.47 h 4.75 v 9.78 c 1.14,-1.67 3.35,-2.59 5.4,-2.59 4.22,0 6.7,3 6.7,7.08 v 13.21 h -4.76 z"
           id="path1180"
           style="fill:#000000;fill-opacity:1;stroke-width:0px" />
        <path
           class="cls-15"
           d="m 287.06,675.93 v -12.14 c 0,-2.32 -0.76,-3.73 -3.27,-3.73 -1.67,0 -2.78,1.06 -3.43,2.51 -0.68,1.56 -0.65,3.62 -0.65,5.29 v 8.07 h -4.76 v -19.79 h 4 l 0.34,2.55 c 1.18,-2.09 3.54,-3.04 5.82,-3.04 4.22,0 6.7,2.97 6.7,7.08 v 13.21 h -4.76 z"
           id="path1181"
           style="fill:#000000;fill-opacity:1;stroke-width:0px" />
        <path
           class="cls-15"
           d="m 311.95,673.34 c -1.37,1.68 -3.92,3.08 -6.93,3.08 -3.01,0 -5.56,-1.41 -6.93,-3.08 -1.48,-1.86 -2.32,-3.96 -2.32,-7.31 0,-3.35 0.84,-5.44 2.32,-7.3 1.37,-1.67 3.92,-3.08 6.93,-3.08 3.01,0 5.56,1.41 6.93,3.08 1.48,1.86 2.32,3.96 2.32,7.3 0,3.34 -0.84,5.44 -2.32,7.31 z m -3.92,-12.29 c -0.65,-0.69 -1.71,-1.26 -3.01,-1.26 -1.3,0 -2.36,0.57 -3.01,1.26 -1.14,1.26 -1.41,3.12 -1.41,4.98 0,1.86 0.27,3.73 1.41,4.99 0.65,0.69 1.71,1.26 3.01,1.26 1.3,0 2.36,-0.57 3.01,-1.26 1.14,-1.25 1.41,-3.12 1.41,-4.99 0,-1.87 -0.27,-3.73 -1.41,-4.98 z"
           id="path1182"
           style="fill:#000000;fill-opacity:1;stroke-width:0px" />
        <path
           class="cls-15"
           d="m 323.83,676.16 c -3.23,0 -5.4,-1.56 -5.4,-5.33 v -22.41 h 4.79 v 21.61 c 0,1.14 0.27,1.9 1.9,1.9 0.42,0 0.53,-0.04 0.8,-0.04 v 3.99 c -0.95,0.19 -1.14,0.27 -2.09,0.27 z"
           id="path1183"
           style="fill:#000000;fill-opacity:1;stroke-width:0px" />
        <path
           class="cls-15"
           d="m 344.34,673.34 c -1.37,1.68 -3.92,3.08 -6.93,3.08 -3.01,0 -5.56,-1.41 -6.92,-3.08 -1.48,-1.86 -2.32,-3.96 -2.32,-7.31 0,-3.35 0.84,-5.44 2.32,-7.3 1.37,-1.67 3.92,-3.08 6.92,-3.08 3,0 5.56,1.41 6.93,3.08 1.48,1.86 2.32,3.96 2.32,7.3 0,3.34 -0.84,5.44 -2.32,7.31 z m -3.92,-12.29 c -0.65,-0.69 -1.71,-1.26 -3.01,-1.26 -1.3,0 -2.36,0.57 -3.01,1.26 -1.14,1.26 -1.41,3.12 -1.41,4.98 0,1.86 0.27,3.73 1.41,4.99 0.65,0.69 1.71,1.26 3.01,1.26 1.3,0 2.36,-0.57 3.01,-1.26 1.14,-1.25 1.41,-3.12 1.41,-4.99 0,-1.87 -0.27,-3.73 -1.41,-4.98 z"
           id="path1184"
           style="fill:#000000;fill-opacity:1;stroke-width:0px" />
        <path
           class="cls-15"
           d="m 358.8,685.18 c -2.4,0 -4.95,-0.19 -7,-1.64 -1.52,-1.06 -2.4,-2.47 -2.4,-4.34 0,-1.71 0.84,-3.27 2.36,-4.04 -1.26,-0.68 -1.98,-2.09 -1.98,-3.39 0,-1.67 0.76,-3.01 2.36,-4 -1.22,-1.22 -1.98,-2.85 -1.98,-4.87 0,-4.72 3.65,-7.27 8.1,-7.27 1.64,0 3.2,0.46 4.49,1.22 0.84,-1.71 2.36,-2.47 4.03,-2.47 0.3,0 0.99,0 1.29,0.08 v 3.69 c -0.11,0 -0.27,-0.04 -0.38,-0.04 -1.1,0 -2.09,0.31 -2.4,1.26 0.65,1.07 1.03,2.25 1.03,3.58 0,4.53 -3.81,7.19 -8.07,7.19 -1.1,0 -2.21,-0.19 -3.2,-0.53 -0.46,0.27 -0.99,0.76 -0.99,1.41 0,1.18 1.18,1.45 2.17,1.45 h 3.27 c 1.98,0 4.57,0.04 6.43,1.33 1.71,1.18 2.4,2.85 2.4,4.76 0,5.21 -5.14,6.62 -9.55,6.62 z m 0.34,-8.94 h -3.73 c -1.03,0.3 -1.79,1.18 -1.79,2.43 0,2.51 3.12,2.74 4.98,2.74 1.86,0 5.25,-0.11 5.25,-2.74 0,-2.43 -2.93,-2.43 -4.72,-2.43 z m -0.87,-17.01 c -2.17,0 -3.5,1.56 -3.5,3.69 0,2.13 1.33,3.65 3.5,3.65 2.17,0 3.5,-1.53 3.5,-3.65 0,-2.12 -1.33,-3.69 -3.5,-3.69 z"
           id="path1185"
           style="fill:#000000;fill-opacity:1;stroke-width:0px" />
        <path
           class="cls-15"
           d="m 380.64,679.32 c -0.99,2.59 -2.62,4.95 -6.09,4.95 -1.56,0 -2.63,-0.23 -3.65,-0.49 v -3.96 c 1.26,0.23 1.6,0.34 2.66,0.34 0.88,0 1.79,-0.3 2.28,-1.48 l 1.14,-2.78 -7.8,-19.75 h 5.21 l 5.17,14.31 4.95,-14.31 h 4.83 l -8.71,23.17 z"
           id="path1186"
           style="fill:#000000;fill-opacity:1;stroke-width:0px" />
      </g>
      <path
         class="cls-15"
         d="m 211.11,708.62 c -0.56,0.66 -1.74,0.78 -2.2,0.75 h -5.78 v -9.21 h 4.45 c 0,0 0.09,0.01 0.17,0.01 0.67,0 2.89,-0.13 4.28,-1.76 l -2.19,-1.86 c -0.56,0.65 -1.74,0.78 -2.2,0.75 h -4.52 v -6.63 h -2.88 v 18.7 h -8.9 c 0,0 0,2.87 0,2.87 h 17.49 c 0,0 0.09,0.01 0.17,0.01 0.67,0 2.89,-0.13 4.28,-1.76 l -2.19,-1.87 z"
         id="path1187"
         style="fill:#000000;fill-opacity:1;stroke-width:0px" />
      <path
         class="cls-15"
         d="m 237.38,708.68 v -12.72 h -5.72 c 0.25,-0.45 0.52,-0.91 0.83,-1.66 h 2.37 c 0,0 0.09,0 0.17,0 0.66,0 2.82,-0.13 4.18,-1.72 l -1.99,-1.69 c -0.59,0.7 -1.83,0.8 -2.3,0.8 h -17.88 c 0,0 0,2.6 0,2.6 h 2.37 v 15.29 c 0,0.47 -0.17,0.56 -0.83,0.56 -0.61,0 -2.07,0.04 -2.07,0.04 0.37,0.85 0.38,1.33 0.5,2.38 q 1.52,0.07 1.88,0.07 c 2.47,0 3.15,-0.56 3.15,-2.59 v -15.75 h 7.75 c -0.19,0.46 -0.55,1.15 -0.81,1.67 h -4.22 v 12.72 h 2.9 c -1.34,1.19 -3.12,2.08 -5.2,2.54 0.76,0.76 1.2,1.37 1.64,2.22 2.42,-0.86 3.84,-1.69 5.99,-3.42 l -1.68,-1.34 h 4.94 l -1.42,1.34 c 1.91,1.56 3.35,2.42 5.62,3.35 0.49,-0.95 0.88,-1.51 1.61,-2.27 -2.2,-0.67 -3.31,-1.2 -5,-2.42 z m -10.46,-7.04 h 8.3 V 703 h -8.3 z m 8.3,-3.52 v 1.36 h -8.3 v -1.36 z m -8.3,7.04 h 8.3 v 1.36 h -8.3 z"
         id="path1188"
         style="fill:#000000;fill-opacity:1;stroke-width:0px" />
      <g
         id="g1190"
         style="fill:#000000;fill-opacity:1">
        <path
           class="cls-15"
           d="m 250.41,700.9 h 2.41 v -1.68 h -1.03 c 0.27,-0.41 0.51,-0.68 0.93,-1 -0.91,-0.32 -1.86,-0.83 -2.42,-1.32 h 2.35 v -1.32 h -2.79 c 0.05,-0.22 0.07,-0.36 0.12,-0.78 h 2.25 v -1.36 h -4.38 c 0.15,-0.33 0.2,-0.45 0.29,-0.65 h 4.67 v -1.7 c 0,0 -2.01,0.01 -2.32,0.01 h -7.89 c 0,0 -0.01,9.8 -0.01,9.8 h 7.81 c 0,0 0,0 0,0 z m -3.33,-6.11 h 1.2 c -0.05,0.46 -0.07,0.56 -0.1,0.78 h -1.83 c 0.36,-0.32 0.49,-0.46 0.73,-0.78 z m -2.32,4.42 v -6.43 h 1.81 c -0.34,0.81 -0.83,1.44 -1.49,1.96 0.71,0.41 0.81,0.49 1.12,0.83 h -0.9 v 1.31 h 2.22 c -0.59,0.66 -1.22,1 -2.44,1.33 0.42,0.32 0.61,0.54 0.95,1 z m 4.28,-1.75 c 0.49,0.63 1.3,1.34 2.08,1.76 h -4.23 c 1,-0.51 1.59,-1 2.15,-1.76 z"
           id="path1189"
           style="fill:#000000;fill-opacity:1;stroke-width:0px" />
        <path
           class="cls-15"
           d="m 259.87,704.35 h -3.99 v -0.61 h 4.56 c 0,0 0.06,0 0.13,0 0.55,0 2.71,-0.1 4.01,-1.62 l -1.23,-1.05 c 0.27,-0.64 0.42,-0.89 0.87,-1.54 -1.83,-0.12 -2.86,-0.27 -4.11,-0.63 1,-0.71 2.84,-2.49 2.84,-2.49 l -1.03,-1.03 h -1.17 c -0.12,0 -0.26,0 -0.41,0 h -5.89 c 0.49,-0.2 0.85,-0.47 1.22,-0.78 0.54,-0.54 0.76,-0.95 0.86,-1.81 h 2.2 v 1.05 c 0,1 0.29,1.15 2.1,1.15 1.81,0 2.27,-0.08 2.69,-0.39 0.39,-0.32 0.61,-0.92 0.71,-2.08 -0.66,-0.12 -1.25,-0.31 -1.78,-0.61 -0.08,1.46 -0.12,1.54 -0.98,1.54 -0.66,0 -0.71,-0.02 -0.71,-0.37 v -0.9 c 0,-0.16 0,-0.3 0,-0.42 v -0.71 h -6 c 0,0 0.04,1.21 -0.51,2.01 -0.34,0.39 -0.76,0.61 -1.52,0.83 0.51,0.49 0.68,0.73 1.1,1.47 h -0.66 v 1.59 h 1.1 c 0.81,1.03 1.12,1.34 1.91,1.93 -1.03,0.34 -1.91,0.54 -3.11,0.68 0.46,0.71 0.71,1.18 0.93,1.81 1.54,-0.29 2.79,-0.71 4.11,-1.32 1.24,0.56 2.42,0.91 4.16,1.23 -0.66,0.31 -1.44,0.37 -1.78,0.37 h -17.88 c 0,0 0,2.08 0,2.08 h 7.13 c -0.01,0.26 -0.02,0.31 -0.06,0.62 h -5.82 v 9.02 h 2.52 v -0.85 h 13.08 v 0.88 h 2.61 v -9.04 h -2.18 z m -1.84,-6.28 c -0.61,-0.29 -1.05,-0.63 -1.56,-1.15 h 3.4 c -0.59,0.44 -1.12,0.78 -1.83,1.15 z m -0.49,7.79 c -0.05,0.66 -0.12,0.74 -0.83,0.74 -0.71,0 -0.83,-0.08 -0.83,-0.49 v -0.25 z m -3.94,-2.12 v 0.61 h -1.61 c 0.02,-0.17 0.02,-0.25 0.04,-0.61 z m -7.23,2.12 h 2.81 c -0.49,0.68 -1.34,1.08 -2.59,1.22 0.76,0.49 1.15,0.85 1.64,1.44 h -1.86 z m 13.08,4.91 h -13.08 v -0.71 h 13.08 z m 0,-2.24 h -10.9 c 1.71,-0.56 2.71,-1.42 3.13,-2.66 h 1.93 v 0.95 c 0,0.93 0.56,1.17 2.66,1.17 2.45,0 2.81,-0.17 3.05,-1.46 -0.71,-0.15 -1.2,-0.34 -1.76,-0.66 h 1.88 v 2.66 z"
           id="path1190"
           style="fill:#000000;fill-opacity:1;stroke-width:0px" />
      </g>
      <g
         id="g1193"
         style="fill:#000000;fill-opacity:1">
        <path
           class="cls-15"
           d="m 274.65,693.84 c 0.49,0.44 0.81,0.83 1.22,1.52 1.3,-0.52 1.79,-0.76 2.76,-1.3 0.51,0.34 0.81,0.59 1.32,1.03 -0.59,0.56 -0.83,0.76 -1.34,1.1 -0.83,-0.49 -1.07,-0.61 -1.98,-1.05 l -1.27,1.17 c 0.83,0.39 1.1,0.51 1.61,0.83 -0.85,0.39 -1.29,0.54 -2.49,0.88 0.63,0.57 0.86,0.86 1.25,1.54 1.34,-0.51 1.88,-0.75 2.91,-1.34 0.64,0.44 0.9,0.66 1.69,1.32 l 1.42,-1.32 c -0.76,-0.51 -1,-0.71 -1.49,-1 0.42,-0.29 0.66,-0.49 1.42,-1.1 l -1.2,-0.93 1.17,-1.17 c -0.73,-0.54 -0.98,-0.71 -1.39,-0.98 0.51,-0.37 0.78,-0.56 1.54,-1.17 l -1.54,-1.2 c -0.69,0.71 -0.95,0.93 -1.61,1.37 -0.88,-0.54 -1.17,-0.69 -2.22,-1.17 l -1.15,1.22 c 0.88,0.44 1.17,0.59 1.69,0.9 -0.76,0.37 -1.17,0.51 -2.3,0.85 z"
           id="path1191"
           style="fill:#000000;fill-opacity:1;stroke-width:0px" />
        <path
           class="cls-15"
           d="m 270.1,701.69 h 16.55 v 2.42 h 2.43 v -4.52 h -1.6 l 0.47,-8.17 h -5.68 v 2.01 h 3.2 c 0,0 -0.05,0.85 -0.05,0.85 h -3.13 v 1.81 h 3.03 c 0,0 -0.05,0.85 -0.05,0.85 h -2.98 v 1.75 h 2.86 c 0,0 -0.05,0.88 -0.05,0.88 h -13.44 l -0.05,-0.88 h 2.79 v -1.76 h -0.95 c -0.13,0 -0.26,0 -0.42,0 h -1.49 l -0.05,-0.81 h 2.91 v -1.81 h -3 c 0,0 -0.02,-0.71 -0.02,-0.71 1.37,-0.27 2.03,-0.46 3.18,-0.88 0.14,-0.05 0.17,-0.05 0.27,-0.07 l -1.15,-1.98 c -1.03,0.63 -2.35,1.03 -4.77,1.37 0.07,0.54 0.12,0.98 0.14,1.59 l 0.29,5.94 c -0.06,0 -1.7,0 -1.7,0 v 4.52 h 2.46 v -2.42 z"
           id="path1192"
           style="fill:#000000;fill-opacity:1;stroke-width:0px" />
        <path
           class="cls-15"
           d="m 287.92,706.01 c -0.66,0.78 -2.01,0.9 -2.5,0.89 h -5.63 v -0.02 l 1.12,-0.4 c 0.96,-0.41 1.96,-0.95 2.73,-1.48 l 1.64,-1.03 -1.21,-1.31 c 0,0 -1.08,0 -1.91,0 h -10.63 c 0,0 0,2.08 0,2.08 h 8.97 c -0.93,0.51 -1.52,0.75 -2.52,1.07 h -0.77 c 0,0 0,1.08 0,1.08 h -9.24 c 0,0 0,2.08 0,2.08 h 9.25 c 0,0 0,1.31 0,1.31 0,0.56 -0.17,0.66 -1.22,0.66 -0.54,0 -2.18,-0.06 -2.18,-0.06 l 0.44,2.33 c 0.83,0.02 1.17,0.02 1.54,0.02 1.61,0 2.44,-0.1 3.01,-0.39 0.64,-0.32 0.95,-0.95 0.95,-1.98 v -1.81 h 0.04 v -0.07 h 5.58 c 0,0 0.06,0 0.13,0 0.55,0 2.71,-0.1 4.01,-1.63 l -1.59,-1.36 z"
           id="path1193"
           style="fill:#000000;fill-opacity:1;stroke-width:0px" />
      </g>
      <g
         id="g1199"
         style="fill:#000000;fill-opacity:1">
        <path
           class="cls-15"
           d="m 303.1,701.76 c 0.55,0 2.71,-0.1 4.01,-1.63 l -1.59,-1.36 c -0.67,0.78 -2.01,0.9 -2.5,0.89 h -2.19 v -1.29 h 4.28 v -6.96 h -11.09 v 6.96 h 4.27 v 1.29 h -5.81 c 0,0 0,2.08 0,2.08 h 10.5 c 0,0 0.06,0.01 0.12,0.01 z m -6.72,-8.6 h 6.33 v 0.88 h -6.33 z m 0,3.39 v -0.88 h 6.33 v 0.88 z"
           id="path1194"
           style="fill:#000000;fill-opacity:1;stroke-width:0px" />
        <path
           class="cls-15"
           d="m 312.44,694.08 c 1.17,-1.05 1.78,-1.59 1.86,-1.63 l -2.27,-1.71 c -0.66,0.86 -0.93,1.15 -1.83,1.93 -1.47,1.3 -2.88,2.2 -4.84,3.05 0.71,0.81 1.07,1.37 1.59,2.32 2.39,-1.34 3.37,-2.05 5.5,-3.96 z"
           id="path1195"
           style="fill:#000000;fill-opacity:1;stroke-width:0px" />
        <path
           class="cls-15"
           d="m 310.85,699.12 c -1.78,1.62 -3.74,2.91 -5.67,3.74 0.61,0.74 1.07,1.42 1.51,2.37 2.86,-1.56 4.89,-3.1 7.21,-5.47 0.37,-0.37 0.66,-0.64 0.95,-0.88 l -2.17,-1.81 c -0.37,0.61 -0.83,1.15 -1.83,2.05 z"
           id="path1196"
           style="fill:#000000;fill-opacity:1;stroke-width:0px" />
        <path
           class="cls-15"
           d="m 295.08,707.53 c -0.68,1.56 -1.37,2.47 -2.73,3.64 0.78,0.61 1.25,1.03 1.81,1.69 1.49,-1.57 2.05,-2.37 3.03,-4.47 l -2.1,-0.85 z"
           id="path1197"
           style="fill:#000000;fill-opacity:1;stroke-width:0px" />
        <path
           class="cls-15"
           d="m 313.29,703.98 c -0.49,0.76 -1.12,1.52 -1.95,2.3 -2,1.88 -3.89,3.2 -6.06,4.2 -0.73,-1.25 -1.17,-1.9 -1.9,-2.96 l -1.88,0.83 c 0.95,1.46 1.54,2.54 2.12,4.01 l 1.59,-0.83 c 0.49,0.66 0.66,0.93 1.03,1.64 3.18,-1.62 5.16,-3.13 7.87,-5.96 q 0.49,-0.51 1.34,-1.32 l -2.15,-1.91 z"
           id="path1198"
           style="fill:#000000;fill-opacity:1;stroke-width:0px" />
        <path
           class="cls-15"
           d="m 304.65,702.65 h -10.38 v 4.51 h 4.08 v 3.3 c 0,0.39 -0.1,0.49 -0.51,0.49 -0.49,0 -1.51,0.03 -1.51,0.03 0.29,0.78 0.32,1.25 0.41,2.15 0.69,0.03 1,0.05 1.34,0.05 1.17,0 1.88,-0.12 2.2,-0.37 0.41,-0.29 0.61,-0.83 0.61,-1.64 v -4.01 h 3.75 v -4.51 z m -2.33,2.87 h -5.55 v -1.25 h 5.55 z"
           id="path1199"
           style="fill:#000000;fill-opacity:1;stroke-width:0px" />
      </g>
      <path
         class="cls-15"
         d="m 339.15,708.29 c -0.83,-0.78 -1.42,-1.49 -2.01,-2.47 0.76,-0.42 2.05,-1.37 3.25,-2.4 l 0.32,-0.27 -2,-1.74 c -0.86,0.98 -1.39,1.44 -2.62,2.25 -0.34,-0.93 -0.44,-1.32 -0.68,-2.57 h 4.1 c 0,0 0,-5.55 0,-5.55 h -2.44 c 0,0 -2.2,0 -2.2,0 0.17,-0.19 0.22,-0.24 0.39,-0.44 0.22,-0.27 1.68,-1.96 1.85,-2.13 l -1.09,-1 h -5.28 q 0.37,-0.53 0.69,-1.05 l -2.86,-0.44 c -0.78,1.69 -1.59,2.74 -3.2,4.2 -0.83,0.76 -1.25,1.05 -2.66,2.01 q 0.76,-1.69 2.2,-5.6 l -2.83,-0.63 c -0.12,0.85 -0.37,1.76 -0.88,3.13 -0.95,2.52 -2.22,4.72 -3.74,6.47 0.46,0.96 0.68,1.57 1.08,2.93 0.66,-0.83 1.22,-1.68 1.71,-2.49 -0.07,1.81 -0.07,2.27 -0.07,3.13 l -0.04,9.6 h 2.58 v -16.37 l 1.37,1.81 c 0.46,-0.34 0.56,-0.42 0.93,-0.68 v 1.37 c 0,0.3 -0.01,1.73 -0.01,1.73 h 4.17 c -1.76,1.03 -3.57,1.66 -6.04,2.15 0.71,1.03 0.76,1.13 1.1,1.86 1.91,-0.51 3.47,-1.15 4.96,-1.93 0.32,0.31 0.47,0.46 0.81,0.88 -2.37,1.34 -4.1,2.03 -6.92,2.74 0.42,0.54 0.78,1.15 1.1,1.91 3.37,-1.27 4.5,-1.79 6.82,-3.18 0.27,0.46 0.34,0.64 0.54,1.05 -2.44,1.71 -5.13,2.96 -8.46,3.96 0.51,0.73 0.88,1.42 1.08,2.08 2.15,-0.83 2.44,-0.95 3.89,-1.71 0.41,0.93 0.59,1.44 0.73,2.32 0.83,0.02 1.34,0.02 1.64,0.02 1.47,0 2.37,-0.15 2.93,-0.49 0.73,-0.49 1.12,-1.54 1.12,-3.2 0,-2.64 -1.24,-5.33 -3.47,-7.5 0.42,-0.27 0.49,-0.34 1.29,-0.95 h 0.95 c 0.39,2.15 0.88,3.66 1.79,5.43 1.15,2.25 2.35,3.66 4.84,5.74 0.42,-0.93 0.73,-1.57 1.32,-2.52 -1.05,-0.63 -1.49,-0.95 -2.03,-1.46 z m -7.14,0.8 c 0,1.64 -0.24,1.96 -1.64,1.96 -0.71,0 -1.29,-0.05 -2.25,-0.2 1.96,-1.03 2.76,-1.52 3.86,-2.32 0.02,0.29 0.02,0.44 0.02,0.56 z m -1.19,-9.77 h -3.37 v -1.93 h 3.37 z m 1.12,-3.77 h -4.03 c 0.54,-0.54 0.88,-0.9 1.39,-1.54 h 3.89 c -0.37,0.54 -0.66,0.88 -1.25,1.54 z m 1.3,3.77 v -1.93 h 3.81 v 1.93 z"
         id="path1200"
         style="fill:#000000;fill-opacity:1;stroke-width:0px" />
      <g
         id="g1204"
         style="fill:#000000;fill-opacity:1">
        <path
           class="cls-15"
           d="m 367.12,704.36 -2.24,-1.34 c -0.29,0.48 -0.84,0.77 -1.33,0.95 l -0.02,-13.16 h -2.67 v 13.7 c 0,0 -6.99,1.17 -6.99,1.17 l 0.43,2.58 6.55,-1.1 v 6.19 c 0,0 2.72,0 2.72,0 v -6.64 c 0.81,-0.18 2.6,-0.73 3.56,-2.34 z"
           id="path1201"
           style="fill:#000000;fill-opacity:1;stroke-width:0px" />
        <path
           class="cls-15"
           d="m 353.33,700.22 c 1.81,1.2 2.71,1.98 4.64,4.01 l 1.54,-2.18 c -1.57,-1.52 -2.44,-2.25 -4.62,-3.79 z"
           id="path1202"
           style="fill:#000000;fill-opacity:1;stroke-width:0px" />
        <path
           class="cls-15"
           d="m 358.78,698.19 1.66,-2.2 c -1.35,-1.42 -2.35,-2.22 -4.72,-3.84 l -1.56,2 c 2,1.34 3.06,2.27 4.62,4.03 z"
           id="path1203"
           style="fill:#000000;fill-opacity:1;stroke-width:0px" />
        <path
           class="cls-15"
           d="m 350.27,699.49 h 3.03 v -2.37 h -1.9 c 0,0 -1.25,0 -1.25,0 v -3.01 c 1.22,-0.34 2.42,-0.73 3.08,-1 q 0.3,-0.15 0.39,-0.17 l -1.51,-2.25 c -1.47,0.95 -4.38,1.66 -8.33,2.08 0.51,0.91 0.68,1.34 0.93,2.35 1.44,-0.2 1.86,-0.25 2.86,-0.44 v 2.44 h -3.74 v 2.38 h 3.42 c -0.22,0.7 -0.68,1.83 -1.17,2.75 -0.85,1.66 -1.64,2.81 -2.76,3.96 0.74,0.95 0.91,1.27 1.44,2.54 1.39,-1.76 2.18,-3.25 2.96,-5.5 l -0.03,10.07 h 2.4 c 0,0 0,-10.37 -0.04,-10.97 0.61,1.34 1.1,2.05 2.3,3.35 0.39,-1.03 0.78,-1.71 1.32,-2.39 -1.66,-1.25 -2.69,-2.42 -3.37,-3.81 z"
           id="path1204"
           style="fill:#000000;fill-opacity:1;stroke-width:0px" />
      </g>
      <path
         class="cls-15"
         d="m 385.59,707.62 c 1.64,-1.71 2.74,-3.25 3.81,-5.38 0.46,-0.93 0.56,-1.12 0.76,-1.44 l -1.2,-1.29 h -2.47 c 0,0 -1.69,0 -1.69,0 v -3.03 c 0,0 1.6,0 1.6,0 0.03,0 0.09,0 0.17,0 0.66,0 2.82,-0.13 4.18,-1.72 l -1.99,-1.7 c -0.59,0.7 -1.83,0.83 -2.3,0.8 h -1.67 v -3.1 h -2.63 v 3.1 h -7.46 c 0,0 0,-3.12 0,-3.12 h -2.61 v 3.12 h -2.7 c 0,0 0,2.61 0,2.61 h 2.7 v 5.76 c -1.76,0.52 -3.06,0.84 -3.06,0.84 l 0.54,2.6 2.52,-0.91 v 5.23 c 0,0.66 -0.15,0.76 -0.95,0.76 -0.54,0 -1.96,0 -1.96,0 0.36,0.9 0.49,1.38 0.57,2.35 0.76,0.05 1.15,0.07 1.74,0.07 2.59,0 3.22,-0.47 3.22,-2.42 v -6.94 q 0.78,-0.32 2.05,-0.81 v -2.42 c -1.03,0.39 -1.32,0.49 -2.05,0.76 v -4.87 h 7.45 v 3.04 h -4.79 v 2.44 c 0.44,-0.05 0.59,-0.05 0.98,-0.08 0.93,2.32 1.88,3.89 3.45,5.67 -2.08,1.51 -3.98,2.42 -6.62,3.15 0.59,0.78 1.05,1.64 1.37,2.52 2.54,-0.81 4.79,-2.03 7.09,-3.86 1.98,1.66 3.91,2.81 6.6,3.93 0.32,-0.93 0.73,-1.66 1.51,-2.66 -2.57,-0.81 -4.4,-1.69 -6.16,-3.01 z m -4.55,-5.76 h 5.72 c -0.88,1.74 -1.64,2.79 -3.06,4.11 -1.12,-1.15 -2.08,-2.62 -2.66,-4.11 z"
         id="path1205"
         style="fill:#000000;fill-opacity:1;stroke-width:0px" />
      <path
         class="cls-15"
         d="m 163.51,626.48 c 0.7,-2.43 1.1,-4.99 1.1,-7.64 0,-10.53 -5.95,-19.7 -14.66,-24.33 -1.12,-3.08 -2.96,-5.87 -5.43,-8.16 -4.09,-3.78 -9.38,-5.73 -14.98,-5.51 -11.49,0.46 -20.46,10.18 -20,21.66 0.01,0.35 0.06,0.68 0.09,1.03 -4.95,-7.37 -13.36,-12.24 -22.88,-12.24 -2.11,0 -4.16,0.26 -6.14,0.71 0.53,-0.7 1.11,-1.38 1.76,-2 3.11,-2.96 7.16,-4.55 11.49,-4.42 4.29,0.11 8.29,1.89 11.25,5 0.91,0.96 2.42,0.99 3.37,0.09 0.96,-0.91 0.99,-2.42 0.09,-3.37 -3.84,-4.04 -9.02,-6.34 -14.58,-6.48 -5.55,-0.15 -10.86,1.89 -14.89,5.72 -2.37,2.25 -4.12,4.97 -5.21,7.95 -8.71,4.63 -14.67,13.8 -14.67,24.33 0,11.21 6.75,20.87 16.38,25.16 -7.43,3.31 -13.12,9.81 -15.34,17.76 -2.81,-4.55 -4.2,-9.9 -3.89,-15.44 h 3.93 l -3.76,-13.11 c -4.38,4.11 -4.95,13.11 -4.95,13.11 -0.4,8.21 2.37,16.04 7.66,22.07 0,0.26 -0.04,0.51 -0.04,0.77 0,10.03 5.4,18.8 13.44,23.62 -0.02,0.38 -0.05,0.77 -0.05,1.16 0,11.5 9.35,20.85 20.85,20.85 8.02,0 14.98,-4.55 18.47,-11.2 3.49,6.65 10.45,11.2 18.46,11.2 11.5,0 20.85,-9.35 20.85,-20.85 0,-0.37 -0.04,-0.73 -0.06,-1.1 3.34,-1.99 6.28,-4.71 8.6,-8.07 3.47,-5.05 5.1,-10.97 4.79,-16.99 4.56,-5.43 7.31,-12.43 7.31,-20.06 0,-8.19 -3.17,-15.65 -8.35,-21.23 z m -0.82,-7.64 c 0,2.09 -0.28,4.11 -0.75,6.06 -0.25,-0.24 -0.51,-0.47 -0.78,-0.7 0.38,-1.73 0.6,-3.52 0.6,-5.36 0,-8.47 -4.29,-15.95 -10.8,-20.4 -0.07,-0.42 -0.15,-0.83 -0.23,-1.24 7.18,4.55 11.97,12.54 11.97,21.64 z m -16.25,-17.8 c 0.02,0.59 0,1.17 -0.04,1.76 l -3.47,0.79 4.62,11.7 c 3.42,-3.79 3.65,-12.88 3.65,-14.27 5.25,4.18 8.63,10.61 8.63,17.82 0,1.36 -0.14,2.68 -0.37,3.98 -5.25,-3.99 -11.79,-6.36 -18.87,-6.36 -2.18,0 -4.3,0.24 -6.35,0.67 v 0 c 0,0 -0.02,0 -0.02,0 -0.33,0.07 -0.66,0.14 -0.99,0.22 -2.14,0.43 -3.77,0.36 -3.77,0.36 h 0.04 c -5.64,-0.29 -10.55,-3.52 -13.18,-8.24 3.58,-7.9 11.52,-13.41 20.74,-13.41 3.17,0 6.2,0.66 8.94,1.83 0.24,1.02 0.39,2.07 0.43,3.13 z m -31.84,14.25 c 2.42,2.8 5.57,4.92 9.13,6.13 -2.83,1.82 -5.34,4.08 -7.45,6.68 -1.27,-2.83 -1.99,-5.96 -1.99,-9.26 0,-1.21 0.12,-2.39 0.3,-3.55 z m 30.64,-19.72 c -2.56,-0.9 -5.31,-1.42 -8.17,-1.42 -9.42,0 -17.62,5.3 -21.78,13.08 -0.14,-0.39 -0.26,-0.79 -0.38,-1.19 4.44,-7.65 12.7,-12.81 22.16,-12.81 2.65,0 5.22,0.41 7.63,1.16 0.2,0.39 0.38,0.78 0.54,1.19 z m -15.5,-9.96 c 4.3,-0.17 8.39,1.34 11.55,4.25 0.72,0.67 1.36,1.39 1.94,2.16 -1.98,-0.46 -4.04,-0.72 -6.16,-0.72 -9.4,0 -17.71,4.74 -22.68,11.95 -0.03,-0.31 -0.07,-0.62 -0.08,-0.93 -0.35,-8.86 6.57,-16.36 15.43,-16.71 z m -16.69,27.61 c -0.42,1.81 -0.67,3.68 -0.67,5.62 0,3.95 0.96,7.67 2.61,10.99 -0.21,0.29 -0.41,0.59 -0.6,0.89 -1.87,-3.55 -2.94,-7.59 -2.94,-11.88 0,-2.31 0.34,-4.55 0.91,-6.68 0.21,0.36 0.45,0.71 0.68,1.06 z m 19.87,33.54 c 5.98,-1.1 12.04,0.18 17.05,3.63 5.01,3.45 8.38,8.64 9.49,14.62 0.07,0.37 0.1,0.73 0.15,1.11 -4.82,4.98 -11.56,8.09 -19.01,8.09 -10.56,0 -19.67,-6.22 -23.92,-15.18 0.48,-0.95 1.01,-1.88 1.62,-2.77 3.45,-5.01 8.64,-8.38 14.62,-9.49 z m 11.09,-4.23 c 6.88,-2.02 12.5,-6.95 15.46,-13.37 0.23,0.24 0.45,0.49 0.67,0.74 -2.92,6.07 -8.14,10.8 -14.54,13.07 -0.53,-0.17 -1.06,-0.31 -1.6,-0.45 z m -6.94,-0.91 c -7.41,0 -13.99,-3.57 -18.15,-9.08 4.79,-6.83 12.72,-11.32 21.68,-11.32 6.66,0 12.74,2.49 17.4,6.57 -3.49,8.12 -11.56,13.82 -20.94,13.82 z m -6.94,0.91 c -0.53,0.14 -1.05,0.29 -1.57,0.46 -4.44,-1.57 -8.33,-4.3 -11.27,-7.86 0.16,-0.29 0.35,-0.57 0.52,-0.85 3.13,3.89 7.41,6.82 12.32,8.26 z m -4.22,1.47 c -4.46,1.97 -8.33,5.09 -11.23,9.15 -0.37,-1.76 -0.57,-3.58 -0.57,-5.44 0,-3.82 0.83,-7.44 2.29,-10.73 2.61,2.97 5.84,5.38 9.51,7.01 z m -16.31,25.08 c 0,12.56 -10.29,22.85 -22.85,22.85 -3.16,0 -6.17,-0.65 -8.91,-1.82 1.43,-5.79 6.01,-10.46 11.97,-11.84 7.04,-1.61 13.56,-5.66 18.17,-11.92 0.88,-1.19 1.65,-2.42 2.33,-3.69 -0.59,2.24 -0.71,6.36 -0.71,6.41 z m -5.18,-21.05 c -1.97,-1.65 -4.16,-2.99 -6.49,-4.02 3.46,-1.54 6.58,-3.79 9.17,-6.63 3.57,8.35 2.79,18.32 -2.96,26.15 -3.79,5.15 -9.09,8.53 -14.85,9.98 -0.01,0 -0.03,0 -0.04,0 -0.04,0 -0.07,0.02 -0.1,0.02 -7.37,1.81 -15.46,0.48 -22.04,-4.36 -1.07,-0.79 -2.05,-1.64 -2.98,-2.56 1.27,-11.36 10.93,-20.23 22.62,-20.23 5.34,0 10.53,1.88 14.61,5.3 1.01,0.84 2.51,0.71 3.36,-0.3 0.84,-1.01 0.71,-2.51 -0.3,-3.36 z m -17.67,-6.41 c -9.45,0 -17.58,-5.8 -21.02,-14.02 9.28,-7.84 22.91,-8.36 32.76,-1.11 2.48,1.82 4.52,4.01 6.16,6.42 -4.31,5.48 -10.88,8.7 -17.91,8.7 z m 18.99,-7 c 0.17,0.29 0.32,0.59 0.47,0.89 -2.95,3.44 -6.73,6.01 -10.93,7.49 -0.51,-0.17 -1.03,-0.34 -1.55,-0.47 4.67,-1.37 8.86,-4.11 12.01,-7.91 z m -26.63,44.22 c -2.54,2.42 -4.46,5.47 -5.53,8.86 -4.79,-3.41 -8.2,-8.63 -9.24,-14.65 4.5,3.29 9.59,5.18 14.77,5.79 z m 2.69,0.2 c 0.32,0 0.64,0.04 0.96,0.04 0.19,0 0.38,-0.01 0.58,-0.02 -3.53,2.41 -6.14,6.03 -7.27,10.2 -0.28,-0.15 -0.55,-0.32 -0.82,-0.48 1.1,-3.87 3.42,-7.28 6.55,-9.74 z m 32.43,-8.65 c 0.04,-1.11 0.15,-3.73 0.43,-5.25 2.43,3.6 5.58,6.66 9.25,8.99 -8.34,2.73 -14.39,10.57 -14.39,19.81 0,9.24 -7.21,16.08 -16.08,16.08 -8.87,0 -15.45,-6.62 -16.03,-14.98 2.92,1.06 6.05,1.66 9.33,1.66 14.77,0 26.83,-11.7 27.48,-26.32 z m -4.33,-38.11 c -0.21,-0.37 -0.43,-0.74 -0.66,-1.1 -2.03,-3.23 -4.67,-6.13 -7.92,-8.52 -0.54,-0.39 -1.09,-0.75 -1.65,-1.1 2.95,-0.92 5.74,-2.49 8.13,-4.76 0.5,-0.48 0.97,-0.98 1.42,-1.5 0.18,1.16 0.31,2.34 0.31,3.55 0,5.02 1.37,9.71 3.72,13.76 -0.59,1.06 -1.11,2.15 -1.57,3.28 -0.51,-1.23 -1.1,-2.44 -1.77,-3.61 z M 110.87,609 c -1.01,2.4 -2.49,4.59 -4.39,6.4 -2.57,2.44 -5.74,4.08 -9.15,4.79 -0.47,-0.25 -0.95,-0.48 -1.43,-0.7 3.72,-0.51 7.19,-2.14 9.94,-4.76 2.08,-1.97 3.63,-4.43 4.57,-7.11 0.14,0.47 0.29,0.93 0.46,1.39 z m -29.08,3.75 c -2.96,-3.11 -4.53,-7.19 -4.42,-11.49 0.03,-1.15 0.19,-2.27 0.45,-3.37 2.74,-1.17 5.76,-1.83 8.93,-1.83 9.21,0 17.15,5.51 20.73,13.4 -0.79,1.42 -1.77,2.74 -2.96,3.87 -6.43,6.11 -16.63,5.84 -22.73,-0.58 z m 4.96,-19.53 c 9.49,0 17.78,5.2 22.2,12.89 -0.06,0.11 -0.11,0.23 -0.15,0.35 -0.08,0.25 -0.19,0.49 -0.28,0.74 -4.17,-7.76 -12.36,-13.05 -21.77,-13.05 -2.87,0 -5.61,0.52 -8.17,1.42 0.17,-0.4 0.35,-0.8 0.55,-1.19 2.41,-0.75 4.97,-1.16 7.62,-1.16 z m -6.34,-5.27 c 3.54,-3.36 8.16,-5.2 13.02,-5.2 h 0.51 c 5.06,0.14 9.76,2.23 13.24,5.89 0.18,0.19 0.17,0.48 -0.02,0.66 -0.11,0.1 -0.23,0.13 -0.32,0.13 -0.09,0 -0.22,-0.03 -0.34,-0.15 -3.31,-3.49 -7.78,-5.47 -12.59,-5.6 -0.18,0 -0.38,0 -0.57,0 -4.56,0 -8.93,1.76 -12.29,4.95 -3.48,3.31 -5.47,7.78 -5.6,12.59 -0.12,4.81 1.63,9.37 4.94,12.86 0.92,0.97 1.95,1.81 3.05,2.55 -0.52,-0.01 -1.04,0 -1.57,0.01 -0.76,-0.59 -1.49,-1.21 -2.16,-1.92 -3.48,-3.66 -5.33,-8.47 -5.2,-13.52 0.13,-5.05 2.22,-9.76 5.89,-13.24 z m -2.08,28.09 c 0.27,0.28 0.56,0.53 0.84,0.8 -5.28,0.61 -10.41,2.55 -14.85,5.81 -0.21,-1.24 -0.34,-2.5 -0.34,-3.79 0,-7.22 3.38,-13.65 8.63,-17.82 0,0.04 0,0.08 0,0.12 -0.14,5.57 1.89,10.86 5.73,14.9 z m -5.25,-18.83 c -0.09,0.4 -0.15,0.82 -0.21,1.23 -6.52,4.45 -10.81,11.93 -10.81,20.41 0,1.77 0.2,3.49 0.55,5.16 -0.25,0.21 -0.51,0.4 -0.75,0.62 -0.01,0.01 -0.02,0.03 -0.04,0.04 -0.44,-1.87 -0.69,-3.81 -0.69,-5.82 0,-9.1 4.78,-17.09 11.95,-21.63 z m -9.96,31.53 c 0.33,0.05 0.67,0.03 0.99,-0.07 2.9,6.66 8.66,11.8 15.72,13.86 -0.54,0.14 -1.07,0.28 -1.59,0.45 -6.82,-2.41 -12.33,-7.61 -15.12,-14.24 z m 23.63,14.8 c 6,0 11.84,2.12 16.44,5.97 0.12,0.1 0.16,0.23 0.16,0.31 0,0.09 0,0.22 -0.11,0.34 -0.12,0.14 -0.28,0.17 -0.36,0.17 -0.08,0 -0.19,-0.02 -0.3,-0.11 -4.42,-3.71 -10.05,-5.75 -15.84,-5.75 -12.13,0 -22.23,8.8 -24.29,20.35 -0.27,-0.32 -0.52,-0.64 -0.77,-0.97 2.46,-11.58 12.76,-20.31 25.06,-20.31 z m -25.56,26.89 c 0.31,0.3 0.64,0.59 0.97,0.88 1.09,12.62 11.69,22.55 24.59,22.55 12.9,0 23.01,-9.49 24.5,-21.7 0.24,0.07 0.48,0.1 0.74,0.09 0.07,0 0.13,-0.02 0.19,-0.03 -1.52,12.69 -12.33,22.57 -25.43,22.57 -13.1,0 -24.89,-10.82 -25.56,-24.36 z m 32.26,42.44 c -10.44,0 -18.93,-8.49 -18.93,-18.93 0,-0.04 0,-0.09 0,-0.14 0.31,0.16 0.62,0.31 0.94,0.46 0.17,9.78 8.17,17.68 17.99,17.68 7.83,0 14.49,-5.04 16.96,-12.03 0.14,0.47 0.31,0.92 0.48,1.38 -2.87,6.8 -9.61,11.58 -17.44,11.58 z m 55.86,-18.93 c 0,10.44 -8.49,18.93 -18.93,18.93 -10.44,0 -18.93,-8.49 -18.93,-18.93 0,-9.02 6.35,-16.58 14.81,-18.46 0.46,0.24 0.94,0.47 1.42,0.69 -8.64,1.31 -15.29,8.77 -15.29,17.78 0,9.93 8.08,18 18,18 9.92,0 17.78,-7.88 17.98,-17.63 0.32,-0.14 0.63,-0.3 0.94,-0.46 0,0.03 0,0.06 0,0.09 z m -0.73,-5.13 c -0.28,0.16 -0.55,0.33 -0.84,0.48 -1.14,-4.27 -3.81,-7.93 -7.39,-10.33 0.08,0 0.16,0 0.25,0 0.43,0 0.86,-0.02 1.28,-0.03 3.19,2.46 5.58,5.9 6.7,9.87 z m -27.58,2 c 0,0 3.42,5.91 16.11,5.91 3.19,0 6.33,-0.57 9.29,-1.63 -0.6,8.33 -7.55,14.93 -16.03,14.93 -8.48,0 -16.08,-7.21 -16.08,-16.08 0,-8.87 7.21,-16.08 16.08,-16.08 7.55,0 13.89,5.24 15.61,12.27 -3.63,1.55 -7.65,2.15 -11.68,1.64 l 0.4,-3.38 z m 34.84,-8.75 c -1.55,2.25 -3.43,4.15 -5.56,5.66 -1.09,-3.49 -3.09,-6.58 -5.71,-9.01 5.6,-0.71 10.73,-2.91 15.01,-6.18 -0.5,3.38 -1.75,6.63 -3.74,9.53 z m -15.24,-5.01 c -10.78,0 -20.22,-5.85 -25.32,-14.54 0.12,-0.4 0.26,-0.79 0.4,-1.17 4.83,8.8 14.19,14.79 24.92,14.79 7.41,0 14.15,-2.88 19.22,-7.54 0,0.42 0.02,0.84 0,1.26 -5.15,4.48 -11.88,7.21 -19.23,7.21 z m 12.07,-30.59 c -1.41,-0.97 -2.9,-1.79 -4.43,-2.47 5.71,-2.54 10.39,-6.97 13.26,-12.49 3.49,4.49 5.59,10.1 5.59,16.21 0,4.9 -1.36,9.48 -3.69,13.42 -1.8,-5.95 -5.53,-11.09 -10.73,-14.67 z m 11.6,18.56 c -0.04,-0.29 -0.06,-0.58 -0.12,-0.87 -0.03,-0.15 -0.07,-0.28 -0.1,-0.43 3.12,-4.56 4.96,-10.07 4.96,-16.01 0,-15.67 -12.75,-28.41 -28.41,-28.41 -13.16,0 -24.23,9.01 -27.44,21.17 -0.14,-0.59 -0.3,-1.19 -0.48,-1.77 3.81,-11.78 14.88,-20.33 27.92,-20.33 16.18,0 29.34,13.16 29.34,29.34 0,6.47 -2.11,12.45 -5.67,17.31 z"
         id="path1206"
         style="fill:#000000;fill-opacity:1;stroke-width:0px" />
    </g>
  </g>
</svg>
